<svg id="svg" version="1.1" xmlns="http://www.w3.org/2000/svg" xmlns:xlink="http://www.w3.org/1999/xlink" width="400" height="165.7505285412262" viewBox="0, 0, 400,165.7505285412262"><g id="svgg"><path id="path0" d="M229.341 0.835 C 216.546 3.865,214.886 7.452,214.825 32.206 C 214.795 44.592,214.645 44.262,219.262 41.956 C 228.745 37.220,244.870 39.821,253.196 47.431 C 257.758 51.600,264.673 63.173,264.706 66.694 C 264.751 71.434,270.910 69.232,286.018 59.074 C 295.413 52.757,296.352 51.375,295.752 44.758 C 293.475 19.648,255.621 -5.388,229.341 0.835 M249.254 4.652 C 269.596 9.449,289.776 28.087,292.211 44.328 C 293.085 50.153,292.331 51.165,282.151 57.831 C 268.832 66.552,267.339 67.278,266.689 65.357 C 259.097 42.928,242.741 33.714,220.507 39.341 L 218.182 39.930 218.205 32.861 C 218.249 19.265,219.545 10.088,221.723 7.946 C 225.867 3.870,239.181 2.278,249.254 4.652 M257.106 14.588 C 256.017 16.564,255.013 18.323,254.874 18.496 C 254.735 18.669,252.932 17.820,250.868 16.610 C 246.765 14.206,246.579 14.277,244.080 19.197 C 242.191 22.917,242.257 23.115,246.089 25.268 C 249.981 27.456,250.060 27.746,247.783 31.481 C 245.435 35.333,245.584 35.781,249.917 37.886 C 254.717 40.218,254.093 40.397,256.699 35.949 L 258.925 32.152 262.737 34.386 C 266.940 36.850,266.710 36.956,269.782 31.148 L 271.422 28.046 267.635 25.827 C 263.184 23.218,263.293 23.658,265.963 19.102 L 268.079 15.492 263.946 13.243 C 258.826 10.456,259.449 10.334,257.106 14.588 M348.892 13.974 C 344.761 18.432,343.648 30.350,342.500 82.452 C 341.711 118.292,341.027 127.790,338.645 135.998 C 335.368 147.291,332.436 135.072,330.767 103.171 C 330.004 88.597,328.813 84.567,325.268 84.567 C 322.117 84.567,320.602 87.158,318.798 95.635 C 315.105 112.986,313.587 111.007,312.905 87.949 C 312.637 78.879,312.088 70.888,311.685 70.190 C 305.081 58.745,300.035 66.580,297.251 92.600 C 295.765 106.487,294.582 112.802,292.823 116.227 L 291.546 118.712 290.369 116.466 C 289.722 115.230,288.665 108.679,288.020 101.909 C 286.598 86.974,284.340 82.639,278.718 84.050 C 275.066 84.967,256.237 107.091,256.237 110.466 C 256.237 112.404,267.045 102.913,274.163 94.725 C 281.429 86.365,282.321 87.293,284.585 105.585 C 285.953 116.635,287.284 120.471,290.054 121.350 C 296.121 123.276,297.774 118.220,300.223 90.248 C 301.106 80.164,302.787 73.309,304.921 71.086 C 307.335 68.572,308.260 72.666,309.492 91.322 C 311.001 114.176,316.872 119.178,320.905 101.046 C 324.850 83.316,326.270 86.422,327.289 115.011 C 328.053 136.464,329.023 141.935,332.666 145.357 C 336.898 149.333,342.021 145.884,344.265 137.551 C 346.555 129.046,346.900 122.841,347.517 79.070 C 348.275 25.315,349.541 14.253,354.375 19.129 C 357.458 22.239,358.600 29.831,359.447 52.854 C 361.391 105.692,363.400 115.349,372.451 115.349 C 377.915 115.349,380.538 111.395,384.735 96.829 C 388.774 82.814,392.825 77.458,398.303 78.890 C 399.564 79.220,400.000 78.920,400.000 77.722 C 400.000 76.435,399.386 76.110,396.957 76.110 C 389.229 76.110,385.628 80.395,380.968 95.137 C 372.936 120.544,366.266 112.727,366.176 77.801 C 366.050 28.988,359.024 3.042,348.892 13.974 M158.463 42.240 C 143.791 45.743,133.615 60.047,133.615 77.169 C 133.615 101.350,149.330 126.906,180.550 153.494 C 197.386 167.833,197.993 168.008,207.073 161.130 C 247.538 130.473,269.363 93.777,262.655 67.674 C 254.735 36.854,218.009 32.544,201.619 60.512 L 199.366 64.357 196.526 60.140 C 186.978 45.962,172.127 38.978,158.463 42.240 M181.597 49.604 C 186.546 51.945,192.412 57.415,196.529 63.527 L 199.262 67.586 202.834 62.153 C 219.615 36.630,254.027 43.621,258.720 73.507 C 262.507 97.629,244.596 126.817,208.164 155.890 C 198.336 163.733,198.311 163.729,184.662 152.518 C 150.811 124.714,134.045 94.826,139.020 71.155 C 143.333 50.634,162.867 40.747,181.597 49.604 M48.690 50.669 C 43.798 56.075,42.110 70.867,41.878 110.359 C 41.697 141.168,41.408 145.445,38.864 154.891 C 37.704 159.200,35.827 159.054,33.812 154.499 C 31.422 149.096,30.533 141.416,29.582 117.970 C 28.502 91.352,27.248 84.879,22.535 81.578 C 16.779 77.546,11.915 83.492,8.137 99.174 C 5.760 109.042,4.523 112.025,1.778 114.509 C -0.126 116.232,-0.635 119.239,0.977 119.239 C 3.614 119.239,8.165 112.622,10.042 106.056 C 13.327 94.567,15.483 88.834,17.221 86.968 L 18.898 85.168 20.422 87.049 C 23.067 90.316,23.699 94.565,24.953 117.548 C 26.975 154.575,30.648 166.947,38.732 163.956 C 43.934 162.032,45.423 152.437,46.525 113.742 C 47.719 71.830,49.156 57.047,52.134 56.054 C 54.448 55.283,55.725 63.791,56.644 86.105 C 57.511 107.146,58.463 111.205,62.532 111.205 C 65.415 111.205,67.197 107.767,69.286 98.176 C 71.738 86.919,72.206 86.944,75.320 98.506 C 80.927 119.327,85.586 115.803,87.042 89.641 C 87.964 73.060,88.397 70.190,89.980 70.190 C 92.835 70.190,94.428 76.967,97.696 103.018 C 100.900 128.549,109.792 128.915,112.907 103.644 C 115.099 85.856,114.619 86.084,125.442 97.675 C 132.068 104.771,141.241 112.782,141.223 111.457 C 141.183 108.645,132.896 97.783,122.510 86.931 C 114.887 78.966,110.346 83.925,109.083 101.591 C 108.630 107.925,107.751 113.695,106.950 115.591 L 105.587 118.816 104.392 116.567 C 103.266 114.446,102.090 108.325,98.144 84.040 C 95.641 68.634,93.458 64.354,88.969 66.049 C 85.509 67.354,84.560 71.597,83.758 89.338 C 82.804 110.418,82.076 111.538,78.611 97.252 C 74.759 81.370,69.438 80.646,66.324 95.581 C 63.046 111.302,61.640 108.511,60.784 84.586 C 59.853 58.560,59.286 54.876,55.610 50.951 C 53.428 48.621,50.646 48.508,48.690 50.669 " stroke="none" fill="#000000" fill-rule="evenodd"></path></g></svg>